<mxfile host="65bd71144e">
    <diagram id="CNQqmsxfFxIgaWTBAwi9" name="Page-1">
        <mxGraphModel dx="1919" dy="806" grid="1" gridSize="10" guides="1" tooltips="1" connect="1" arrows="1" fold="1" page="1" pageScale="1" pageWidth="827" pageHeight="1169" math="0" shadow="0">
            <root>
                <mxCell id="0"/>
                <mxCell id="1" parent="0"/>
                <mxCell id="Zatl_ybfSAwXHSOVHGpd-10" value="" style="endArrow=none;html=1;rounded=0;align=center;verticalAlign=top;endFill=0;labelBackgroundColor=none;entryX=0.5;entryY=0;entryDx=0;entryDy=0;exitX=0.493;exitY=0.962;exitDx=0;exitDy=0;exitPerimeter=0;fontColor=#0000FF;strokeColor=#FFFFFF;" parent="1" source="78LwuEahcBiL7WYBxUG0-4" target="78LwuEahcBiL7WYBxUG0-5" edge="1">
                    <mxGeometry relative="1" as="geometry">
                        <mxPoint x="340" y="290" as="sourcePoint"/>
                        <mxPoint x="540.0000000000001" y="290" as="targetPoint"/>
                        <Array as="points">
                            <mxPoint x="539" y="360"/>
                            <mxPoint x="910" y="360"/>
                        </Array>
                    </mxGeometry>
                </mxCell>
                <mxCell id="Zatl_ybfSAwXHSOVHGpd-11" value="0..n" style="resizable=0;html=1;align=left;verticalAlign=top;labelBackgroundColor=none;fontColor=#0000FF;strokeColor=#0000FF;" parent="Zatl_ybfSAwXHSOVHGpd-10" connectable="0" vertex="1">
                    <mxGeometry x="-1" relative="1" as="geometry">
                        <mxPoint x="-29" as="offset"/>
                    </mxGeometry>
                </mxCell>
                <mxCell id="Zatl_ybfSAwXHSOVHGpd-12" value="&lt;font color=&quot;#ffffff&quot;&gt;fa riferimento a&amp;nbsp;&lt;span style=&quot;font-family: arial, sans-serif; font-size: 16px; text-align: left;&quot;&gt;▼&lt;/span&gt;&lt;/font&gt;" style="resizable=0;html=1;align=right;verticalAlign=bottom;labelBackgroundColor=none;fontColor=#0000FF;" parent="Zatl_ybfSAwXHSOVHGpd-10" connectable="0" vertex="1">
                    <mxGeometry x="1" relative="1" as="geometry">
                        <mxPoint x="4" y="-75" as="offset"/>
                    </mxGeometry>
                </mxCell>
                <mxCell id="Zatl_ybfSAwXHSOVHGpd-13" value="0..1" style="resizable=0;html=1;align=right;verticalAlign=top;labelBackgroundColor=none;" parent="Zatl_ybfSAwXHSOVHGpd-10" connectable="0" vertex="1">
                    <mxGeometry x="1" relative="1" as="geometry"/>
                </mxCell>
                <mxCell id="78LwuEahcBiL7WYBxUG0-1" value="Sezione" style="swimlane;fontStyle=0;childLayout=stackLayout;horizontal=1;startSize=26;horizontalStack=0;resizeParent=1;resizeParentMax=0;resizeLast=0;collapsible=1;marginBottom=0;labelBackgroundColor=none;fontColor=#0000FF;strokeColor=#0000FF;" parent="1" vertex="1">
                    <mxGeometry x="470" y="80" width="140" height="52" as="geometry"/>
                </mxCell>
                <mxCell id="78LwuEahcBiL7WYBxUG0-2" value="nome: testo" style="text;strokeColor=#0000FF;fillColor=none;align=left;verticalAlign=top;spacingLeft=4;spacingRight=4;overflow=hidden;rotatable=0;points=[[0,0.5],[1,0.5]];portConstraint=eastwest;labelBackgroundColor=none;fontColor=#0000FF;" parent="78LwuEahcBiL7WYBxUG0-1" vertex="1">
                    <mxGeometry y="26" width="140" height="26" as="geometry"/>
                </mxCell>
                <mxCell id="78LwuEahcBiL7WYBxUG0-3" value="Voce" style="swimlane;fontStyle=0;childLayout=stackLayout;horizontal=1;startSize=26;horizontalStack=0;resizeParent=1;resizeParentMax=0;resizeLast=0;collapsible=1;marginBottom=0;labelBackgroundColor=none;fontColor=#0000FF;strokeColor=#0000FF;" parent="1" vertex="1">
                    <mxGeometry x="470" y="220" width="140" height="52" as="geometry"/>
                </mxCell>
                <mxCell id="78LwuEahcBiL7WYBxUG0-4" value="descrizione: testo" style="text;strokeColor=#0000FF;fillColor=none;align=left;verticalAlign=top;spacingLeft=4;spacingRight=4;overflow=hidden;rotatable=0;points=[[0,0.5],[1,0.5]];portConstraint=eastwest;labelBackgroundColor=none;fontColor=#0000FF;" parent="78LwuEahcBiL7WYBxUG0-3" vertex="1">
                    <mxGeometry y="26" width="140" height="26" as="geometry"/>
                </mxCell>
                <mxCell id="OorJLYem-8eahj1t15pe-57" style="edgeStyle=orthogonalEdgeStyle;rounded=0;orthogonalLoop=1;jettySize=auto;html=1;exitX=0.5;exitY=1;exitDx=0;exitDy=0;entryX=0.5;entryY=0;entryDx=0;entryDy=0;" parent="1" source="78LwuEahcBiL7WYBxUG0-5" target="OorJLYem-8eahj1t15pe-54" edge="1">
                    <mxGeometry relative="1" as="geometry"/>
                </mxCell>
                <mxCell id="78LwuEahcBiL7WYBxUG0-5" value="Ricetta" style="swimlane;fontStyle=0;childLayout=stackLayout;horizontal=1;startSize=26;horizontalStack=0;resizeParent=1;resizeParentMax=0;resizeLast=0;collapsible=1;marginBottom=0;labelBackgroundColor=none;" parent="1" vertex="1">
                    <mxGeometry x="840" y="430.32" width="140" height="52" as="geometry"/>
                </mxCell>
                <mxCell id="78LwuEahcBiL7WYBxUG0-6" value="nome: testo" style="text;strokeColor=none;fillColor=none;align=left;verticalAlign=top;spacingLeft=4;spacingRight=4;overflow=hidden;rotatable=0;points=[[0,0.5],[1,0.5]];portConstraint=eastwest;labelBackgroundColor=none;fontColor=#000000;" parent="78LwuEahcBiL7WYBxUG0-5" vertex="1">
                    <mxGeometry y="26" width="140" height="26" as="geometry"/>
                </mxCell>
                <mxCell id="OorJLYem-8eahj1t15pe-55" style="edgeStyle=orthogonalEdgeStyle;rounded=0;orthogonalLoop=1;jettySize=auto;html=1;exitX=0.5;exitY=1;exitDx=0;exitDy=0;entryX=0.5;entryY=0;entryDx=0;entryDy=0;" parent="1" source="78LwuEahcBiL7WYBxUG0-7" target="OorJLYem-8eahj1t15pe-54" edge="1">
                    <mxGeometry relative="1" as="geometry"/>
                </mxCell>
                <mxCell id="78LwuEahcBiL7WYBxUG0-7" value="Preparazione" style="swimlane;fontStyle=0;childLayout=stackLayout;horizontal=1;startSize=26;horizontalStack=0;resizeParent=1;resizeParentMax=0;resizeLast=0;collapsible=1;marginBottom=0;labelBackgroundColor=none;" parent="1" vertex="1">
                    <mxGeometry x="1163" y="426.48" width="150" height="56" as="geometry"/>
                </mxCell>
                <mxCell id="rrgMBrNQnltIqpoLHgI7-3" value="tempoPreparazione : time" style="text;html=1;align=left;verticalAlign=middle;resizable=0;points=[];autosize=1;strokeColor=none;fillColor=none;" parent="78LwuEahcBiL7WYBxUG0-7" vertex="1">
                    <mxGeometry y="26" width="150" height="30" as="geometry"/>
                </mxCell>
                <mxCell id="78LwuEahcBiL7WYBxUG0-9" value="Menù" style="swimlane;fontStyle=0;childLayout=stackLayout;horizontal=1;startSize=26;horizontalStack=0;resizeParent=1;resizeParentMax=0;resizeLast=0;collapsible=1;marginBottom=0;labelBackgroundColor=none;fontColor=#0000FF;strokeColor=#0000FF;" parent="1" vertex="1">
                    <mxGeometry x="140" y="80" width="140" height="180" as="geometry"/>
                </mxCell>
                <mxCell id="78LwuEahcBiL7WYBxUG0-10" value="titolo: testo&#10;pubblicato: sì/no&#10;richiede cuoco: sì/no&#10;piatti caldi: sì/no&#10;richiede cucina: sì/no&#10;buffet: sì/no&#10;finger food: sì/no" style="text;strokeColor=#0000FF;fillColor=none;align=left;verticalAlign=top;spacingLeft=4;spacingRight=4;overflow=hidden;rotatable=0;points=[[0,0.5],[1,0.5]];portConstraint=eastwest;labelBackgroundColor=none;fontColor=#0000FF;" parent="78LwuEahcBiL7WYBxUG0-9" vertex="1">
                    <mxGeometry y="26" width="140" height="154" as="geometry"/>
                </mxCell>
                <mxCell id="78LwuEahcBiL7WYBxUG0-11" value="Chef" style="swimlane;fontStyle=0;childLayout=stackLayout;horizontal=1;startSize=26;horizontalStack=0;resizeParent=1;resizeParentMax=0;resizeLast=0;collapsible=1;marginBottom=0;labelBackgroundColor=none;" parent="1" vertex="1">
                    <mxGeometry x="-180" y="330" width="140" height="52" as="geometry"/>
                </mxCell>
                <mxCell id="78LwuEahcBiL7WYBxUG0-12" value="nome: testo" style="text;strokeColor=none;fillColor=none;align=left;verticalAlign=top;spacingLeft=4;spacingRight=4;overflow=hidden;rotatable=0;points=[[0,0.5],[1,0.5]];portConstraint=eastwest;labelBackgroundColor=none;fontColor=#000000;" parent="78LwuEahcBiL7WYBxUG0-11" vertex="1">
                    <mxGeometry y="26" width="140" height="26" as="geometry"/>
                </mxCell>
                <mxCell id="78LwuEahcBiL7WYBxUG0-13" value="Evento" style="swimlane;fontStyle=0;childLayout=stackLayout;horizontal=1;startSize=26;horizontalStack=0;resizeParent=1;resizeParentMax=0;resizeLast=0;collapsible=1;marginBottom=0;labelBackgroundColor=none;" parent="1" vertex="1">
                    <mxGeometry x="-180" y="510" width="140" height="140" as="geometry"/>
                </mxCell>
                <mxCell id="78LwuEahcBiL7WYBxUG0-14" value="/date&#10;descrizione: testo&#10;persone: numero&#10;ricorrente: sì/no&#10;inCorso: sì/no&#10;annullato: sì/no&#10;chiuso: sì/no" style="text;strokeColor=none;fillColor=none;align=left;verticalAlign=top;spacingLeft=4;spacingRight=4;overflow=hidden;rotatable=0;points=[[0,0.5],[1,0.5]];portConstraint=eastwest;labelBackgroundColor=none;fontColor=#FFFFFF;fontSize=12;" parent="78LwuEahcBiL7WYBxUG0-13" vertex="1">
                    <mxGeometry y="26" width="140" height="114" as="geometry"/>
                </mxCell>
                <mxCell id="78LwuEahcBiL7WYBxUG0-15" value="" style="endArrow=diamondThin;html=1;rounded=0;align=center;verticalAlign=top;endFill=1;labelBackgroundColor=none;endSize=18;fontColor=#0000FF;strokeColor=#0000FF;" parent="1" target="78LwuEahcBiL7WYBxUG0-2" edge="1">
                    <mxGeometry relative="1" as="geometry">
                        <mxPoint x="540" y="220" as="sourcePoint"/>
                        <mxPoint x="514" y="430" as="targetPoint"/>
                    </mxGeometry>
                </mxCell>
                <mxCell id="78LwuEahcBiL7WYBxUG0-16" value="&lt;font color=&quot;#000000&quot;&gt;1&lt;/font&gt;" style="resizable=0;html=1;align=left;verticalAlign=top;labelBackgroundColor=none;fontColor=#0000FF;" parent="78LwuEahcBiL7WYBxUG0-15" connectable="0" vertex="1">
                    <mxGeometry x="-1" relative="1" as="geometry">
                        <mxPoint x="375" y="189" as="offset"/>
                    </mxGeometry>
                </mxCell>
                <mxCell id="78LwuEahcBiL7WYBxUG0-17" value="appartiene&amp;nbsp;&lt;div&gt;{ordered}&lt;/div&gt;&lt;div&gt;&amp;nbsp;&lt;span style=&quot;font-family: arial, sans-serif; font-size: 16px; text-align: left;&quot;&gt;▲&lt;/span&gt;&lt;/div&gt;" style="resizable=0;html=1;align=right;verticalAlign=bottom;labelBackgroundColor=none;fontColor=#0000FF;strokeColor=#0000FF;" parent="78LwuEahcBiL7WYBxUG0-15" connectable="0" vertex="1">
                    <mxGeometry x="1" relative="1" as="geometry">
                        <mxPoint x="70" y="68" as="offset"/>
                    </mxGeometry>
                </mxCell>
                <mxCell id="78LwuEahcBiL7WYBxUG0-18" value="0..1" style="resizable=0;html=1;align=right;verticalAlign=top;labelBackgroundColor=none;fontColor=#0000FF;strokeColor=#0000FF;" parent="78LwuEahcBiL7WYBxUG0-15" connectable="0" vertex="1">
                    <mxGeometry x="1" relative="1" as="geometry">
                        <mxPoint x="-10" as="offset"/>
                    </mxGeometry>
                </mxCell>
                <mxCell id="78LwuEahcBiL7WYBxUG0-19" value="0..n" style="resizable=0;html=1;align=right;verticalAlign=top;labelBackgroundColor=none;fontColor=#0000FF;strokeColor=#0000FF;" parent="1" connectable="0" vertex="1">
                    <mxGeometry x="530" y="190" as="geometry"/>
                </mxCell>
                <mxCell id="78LwuEahcBiL7WYBxUG0-25" value="" style="endArrow=none;html=1;rounded=0;align=center;verticalAlign=top;endFill=0;labelBackgroundColor=none;entryX=0;entryY=0.75;entryDx=0;entryDy=0;exitX=1;exitY=0.5;exitDx=0;exitDy=0;" parent="1" source="78LwuEahcBiL7WYBxUG0-6" target="78LwuEahcBiL7WYBxUG0-7" edge="1">
                    <mxGeometry relative="1" as="geometry">
                        <mxPoint x="833" y="401.33199999999994" as="sourcePoint"/>
                        <mxPoint x="833.98" y="490.32" as="targetPoint"/>
                    </mxGeometry>
                </mxCell>
                <mxCell id="78LwuEahcBiL7WYBxUG0-26" value="0..n" style="resizable=0;html=1;align=left;verticalAlign=top;labelBackgroundColor=none;" parent="78LwuEahcBiL7WYBxUG0-25" connectable="0" vertex="1">
                    <mxGeometry x="-1" relative="1" as="geometry">
                        <mxPoint x="10" y="-29" as="offset"/>
                    </mxGeometry>
                </mxCell>
                <mxCell id="78LwuEahcBiL7WYBxUG0-27" value="&lt;span style=&quot;font-size: 15px;&quot;&gt;◀︎&lt;/span&gt;si trova in" style="resizable=0;html=1;align=right;verticalAlign=bottom;labelBackgroundColor=none;" parent="78LwuEahcBiL7WYBxUG0-25" connectable="0" vertex="1">
                    <mxGeometry x="1" relative="1" as="geometry">
                        <mxPoint x="127" y="229" as="offset"/>
                    </mxGeometry>
                </mxCell>
                <mxCell id="78LwuEahcBiL7WYBxUG0-28" value="1" style="resizable=0;html=1;align=right;verticalAlign=top;labelBackgroundColor=none;" parent="78LwuEahcBiL7WYBxUG0-25" connectable="0" vertex="1">
                    <mxGeometry x="1" relative="1" as="geometry">
                        <mxPoint x="-11" y="-30" as="offset"/>
                    </mxGeometry>
                </mxCell>
                <mxCell id="78LwuEahcBiL7WYBxUG0-33" value="" style="endArrow=diamondThin;html=1;rounded=0;align=center;verticalAlign=top;endFill=1;labelBackgroundColor=none;endSize=18;exitX=0.5;exitY=0;exitDx=0;exitDy=0;entryX=0.593;entryY=0.007;entryDx=0;entryDy=0;entryPerimeter=0;fontColor=#0000FF;strokeColor=#0000FF;" parent="1" source="78LwuEahcBiL7WYBxUG0-1" target="78LwuEahcBiL7WYBxUG0-9" edge="1">
                    <mxGeometry relative="1" as="geometry">
                        <mxPoint x="360" y="132" as="sourcePoint"/>
                        <mxPoint x="360" y="44" as="targetPoint"/>
                        <Array as="points">
                            <mxPoint x="540" y="40"/>
                            <mxPoint x="223" y="40"/>
                        </Array>
                    </mxGeometry>
                </mxCell>
                <mxCell id="78LwuEahcBiL7WYBxUG0-34" value="0..n" style="resizable=0;html=1;align=left;verticalAlign=top;labelBackgroundColor=none;fontColor=#0000FF;strokeColor=#0000FF;" parent="78LwuEahcBiL7WYBxUG0-33" connectable="0" vertex="1">
                    <mxGeometry x="-1" relative="1" as="geometry">
                        <mxPoint x="10" y="-30" as="offset"/>
                    </mxGeometry>
                </mxCell>
                <mxCell id="78LwuEahcBiL7WYBxUG0-35" value="contiene&lt;div&gt;{ordered}&lt;/div&gt;&lt;div&gt;&lt;span style=&quot;font-family: arial, sans-serif; font-size: 16px; text-align: left; background-color: initial;&quot;&gt;▶&lt;/span&gt;&lt;br&gt;&lt;/div&gt;" style="resizable=0;html=1;align=right;verticalAlign=bottom;labelBackgroundColor=none;fontColor=#0000FF;strokeColor=#0000FF;" parent="78LwuEahcBiL7WYBxUG0-33" connectable="0" vertex="1">
                    <mxGeometry x="1" relative="1" as="geometry">
                        <mxPoint x="197" y="19" as="offset"/>
                    </mxGeometry>
                </mxCell>
                <mxCell id="78LwuEahcBiL7WYBxUG0-36" value="1" style="resizable=0;html=1;align=right;verticalAlign=top;labelBackgroundColor=none;fontColor=#0000FF;strokeColor=#0000FF;" parent="78LwuEahcBiL7WYBxUG0-33" connectable="0" vertex="1">
                    <mxGeometry x="1" relative="1" as="geometry">
                        <mxPoint x="-10" y="-31" as="offset"/>
                    </mxGeometry>
                </mxCell>
                <mxCell id="78LwuEahcBiL7WYBxUG0-37" value="" style="endArrow=diamondThin;html=1;rounded=0;align=center;verticalAlign=top;endFill=1;labelBackgroundColor=none;endSize=18;exitX=-0.021;exitY=0.385;exitDx=0;exitDy=0;exitPerimeter=0;entryX=1.007;entryY=0.864;entryDx=0;entryDy=0;entryPerimeter=0;fontColor=#0000FF;strokeColor=#0000FF;" parent="1" source="78LwuEahcBiL7WYBxUG0-3" target="78LwuEahcBiL7WYBxUG0-10" edge="1">
                    <mxGeometry relative="1" as="geometry">
                        <mxPoint x="350" y="220" as="sourcePoint"/>
                        <mxPoint x="350" y="132" as="targetPoint"/>
                    </mxGeometry>
                </mxCell>
                <mxCell id="78LwuEahcBiL7WYBxUG0-38" value="0..n" style="resizable=0;html=1;align=left;verticalAlign=top;labelBackgroundColor=none;fontColor=#0000FF;strokeColor=#0000FF;" parent="78LwuEahcBiL7WYBxUG0-37" connectable="0" vertex="1">
                    <mxGeometry x="-1" relative="1" as="geometry">
                        <mxPoint x="-27" y="-29" as="offset"/>
                    </mxGeometry>
                </mxCell>
                <mxCell id="78LwuEahcBiL7WYBxUG0-39" value="&lt;font style=&quot;font-size: 15px&quot;&gt;◀︎&lt;/font&gt;&amp;nbsp;appartiene&amp;nbsp;&lt;div&gt;{ordered}&lt;/div&gt;" style="resizable=0;html=1;align=right;verticalAlign=bottom;labelBackgroundColor=none;fontColor=#0000FF;strokeColor=#0000FF;" parent="78LwuEahcBiL7WYBxUG0-37" connectable="0" vertex="1">
                    <mxGeometry x="1" relative="1" as="geometry">
                        <mxPoint x="139" y="-2" as="offset"/>
                    </mxGeometry>
                </mxCell>
                <mxCell id="78LwuEahcBiL7WYBxUG0-40" value="0..1" style="resizable=0;html=1;align=right;verticalAlign=top;labelBackgroundColor=none;fontColor=#0000FF;strokeColor=#0000FF;" parent="78LwuEahcBiL7WYBxUG0-37" connectable="0" vertex="1">
                    <mxGeometry x="1" relative="1" as="geometry">
                        <mxPoint x="29" y="-29" as="offset"/>
                    </mxGeometry>
                </mxCell>
                <mxCell id="78LwuEahcBiL7WYBxUG0-41" value="" style="endArrow=none;html=1;rounded=0;align=center;verticalAlign=top;endFill=0;labelBackgroundColor=none;exitX=0;exitY=0.5;exitDx=0;exitDy=0;fontColor=#0000FF;strokeColor=#FFFFFF;" parent="1" source="78LwuEahcBiL7WYBxUG0-10" target="78LwuEahcBiL7WYBxUG0-11" edge="1">
                    <mxGeometry relative="1" as="geometry">
                        <mxPoint x="209.5" y="260.00199999999995" as="sourcePoint"/>
                        <mxPoint x="210" y="330" as="targetPoint"/>
                        <Array as="points">
                            <mxPoint x="-110" y="183"/>
                        </Array>
                    </mxGeometry>
                </mxCell>
                <mxCell id="78LwuEahcBiL7WYBxUG0-43" value="&lt;font color=&quot;#ffffff&quot;&gt;è proprietario di&lt;span style=&quot;font-family: arial, sans-serif; font-size: 16px; text-align: left;&quot;&gt;▲&lt;/span&gt;&lt;/font&gt;" style="resizable=0;html=1;align=right;verticalAlign=bottom;labelBackgroundColor=none;fontColor=#0000FF;strokeColor=#0000FF;" parent="78LwuEahcBiL7WYBxUG0-41" connectable="0" vertex="1">
                    <mxGeometry x="1" relative="1" as="geometry">
                        <mxPoint x="110" y="-35" as="offset"/>
                    </mxGeometry>
                </mxCell>
                <mxCell id="78LwuEahcBiL7WYBxUG0-44" value="&lt;font color=&quot;#000000&quot;&gt;0..n&lt;/font&gt;" style="resizable=0;html=1;align=right;verticalAlign=top;labelBackgroundColor=none;fontColor=#0000FF;strokeColor=#0000FF;" parent="78LwuEahcBiL7WYBxUG0-41" connectable="0" vertex="1">
                    <mxGeometry x="1" relative="1" as="geometry">
                        <mxPoint x="-10" y="-25" as="offset"/>
                    </mxGeometry>
                </mxCell>
                <mxCell id="78LwuEahcBiL7WYBxUG0-45" value="" style="endArrow=none;html=1;rounded=0;align=center;verticalAlign=top;endFill=0;labelBackgroundColor=none;entryX=0.5;entryY=0;entryDx=0;entryDy=0;" parent="1" source="78LwuEahcBiL7WYBxUG0-12" target="78LwuEahcBiL7WYBxUG0-13" edge="1">
                    <mxGeometry relative="1" as="geometry">
                        <mxPoint x="210" y="410" as="sourcePoint"/>
                        <mxPoint x="210" y="440" as="targetPoint"/>
                    </mxGeometry>
                </mxCell>
                <mxCell id="78LwuEahcBiL7WYBxUG0-46" value="0..1" style="resizable=0;html=1;align=left;verticalAlign=top;labelBackgroundColor=none;" parent="78LwuEahcBiL7WYBxUG0-45" connectable="0" vertex="1">
                    <mxGeometry x="-1" relative="1" as="geometry">
                        <mxPoint x="-29" as="offset"/>
                    </mxGeometry>
                </mxCell>
                <mxCell id="78LwuEahcBiL7WYBxUG0-47" value="assegnato a&amp;nbsp;&lt;span style=&quot;color: rgb(32 , 33 , 36) ; font-family: &amp;#34;arial&amp;#34; , sans-serif ; font-size: 16px ; text-align: left&quot;&gt;▼&lt;/span&gt;" style="resizable=0;html=1;align=right;verticalAlign=bottom;labelBackgroundColor=none;" parent="78LwuEahcBiL7WYBxUG0-45" connectable="0" vertex="1">
                    <mxGeometry x="1" relative="1" as="geometry">
                        <mxPoint x="90" y="-50" as="offset"/>
                    </mxGeometry>
                </mxCell>
                <mxCell id="78LwuEahcBiL7WYBxUG0-48" value="0..n" style="resizable=0;html=1;align=right;verticalAlign=top;labelBackgroundColor=none;" parent="78LwuEahcBiL7WYBxUG0-45" connectable="0" vertex="1">
                    <mxGeometry x="1" relative="1" as="geometry">
                        <mxPoint x="25" y="140" as="offset"/>
                    </mxGeometry>
                </mxCell>
                <mxCell id="UVPNnTYAwM3Xo7iVTWcv-2" value="Organizzatore" style="swimlane;fontStyle=0;childLayout=stackLayout;horizontal=1;startSize=26;horizontalStack=0;resizeParent=1;resizeParentMax=0;resizeLast=0;collapsible=1;marginBottom=0;labelBackgroundColor=none;" parent="1" vertex="1">
                    <mxGeometry x="-180" y="750" width="140" height="70" as="geometry"/>
                </mxCell>
                <mxCell id="UVPNnTYAwM3Xo7iVTWcv-4" value="nome: testo" style="text;strokeColor=none;fillColor=none;align=left;verticalAlign=top;spacingLeft=4;spacingRight=4;overflow=hidden;rotatable=0;points=[[0,0.5],[1,0.5]];portConstraint=eastwest;labelBackgroundColor=none;fontColor=#FFFFFF;" parent="UVPNnTYAwM3Xo7iVTWcv-2" vertex="1">
                    <mxGeometry y="26" width="140" height="44" as="geometry"/>
                </mxCell>
                <mxCell id="UVPNnTYAwM3Xo7iVTWcv-5" value="0..1" style="resizable=0;html=1;align=right;verticalAlign=top;labelBackgroundColor=none;" parent="1" connectable="0" vertex="1">
                    <mxGeometry x="-85" y="730" as="geometry"/>
                </mxCell>
                <mxCell id="UVPNnTYAwM3Xo7iVTWcv-6" value="&lt;font color=&quot;#ffffff&quot;&gt;ha in carico&amp;nbsp;&lt;span style=&quot;font-family: arial, sans-serif; font-size: 16px; text-align: left;&quot;&gt;▲&lt;/span&gt;&lt;/font&gt;" style="resizable=0;html=1;align=right;verticalAlign=bottom;labelBackgroundColor=none;fontColor=#0000FF;strokeColor=#0000FF;" parent="1" connectable="0" vertex="1">
                    <mxGeometry x="-29.99871006874912" y="712.3210809529487" as="geometry"/>
                </mxCell>
                <mxCell id="UVPNnTYAwM3Xo7iVTWcv-8" value="" style="endArrow=none;html=1;rounded=0;entryX=0.475;entryY=-0.016;entryDx=0;entryDy=0;entryPerimeter=0;endFill=0;exitX=0.475;exitY=0.999;exitDx=0;exitDy=0;exitPerimeter=0;" parent="1" source="78LwuEahcBiL7WYBxUG0-14" target="UVPNnTYAwM3Xo7iVTWcv-2" edge="1">
                    <mxGeometry width="50" height="50" relative="1" as="geometry">
                        <mxPoint x="-110" y="650" as="sourcePoint"/>
                        <mxPoint x="260" y="550" as="targetPoint"/>
                    </mxGeometry>
                </mxCell>
                <mxCell id="UVPNnTYAwM3Xo7iVTWcv-9" value="" style="endArrow=diamondThin;html=1;rounded=0;align=center;verticalAlign=top;endFill=1;labelBackgroundColor=none;endSize=18;fontColor=#0000FF;strokeColor=default;exitX=0.25;exitY=0;exitDx=0;exitDy=0;fillColor=#000000;" parent="1" edge="1">
                    <mxGeometry relative="1" as="geometry">
                        <mxPoint x="175" y="751" as="sourcePoint"/>
                        <mxPoint x="-40" y="549" as="targetPoint"/>
                        <Array as="points">
                            <mxPoint x="175" y="550"/>
                        </Array>
                    </mxGeometry>
                </mxCell>
                <mxCell id="UVPNnTYAwM3Xo7iVTWcv-10" value="&lt;font color=&quot;#000000&quot;&gt;0..n&lt;/font&gt;" style="resizable=0;html=1;align=left;verticalAlign=top;labelBackgroundColor=none;fontColor=#0000FF;strokeColor=#0000FF;" parent="UVPNnTYAwM3Xo7iVTWcv-9" connectable="0" vertex="1">
                    <mxGeometry x="-1" relative="1" as="geometry">
                        <mxPoint x="-27" y="-41" as="offset"/>
                    </mxGeometry>
                </mxCell>
                <mxCell id="UVPNnTYAwM3Xo7iVTWcv-11" value="&lt;span style=&quot;background-color: rgb(0, 0, 0);&quot;&gt;&lt;font color=&quot;#ffffff&quot;&gt;&lt;span style=&quot;font-size: 15px;&quot;&gt;◀︎&lt;/span&gt;&lt;font style=&quot;font-size: 12px;&quot;&gt;si svolge durante&lt;/font&gt;&lt;/font&gt;&lt;/span&gt;" style="resizable=0;html=1;align=right;verticalAlign=bottom;labelBackgroundColor=none;fontColor=#0000FF;strokeColor=#0000FF;" parent="UVPNnTYAwM3Xo7iVTWcv-9" connectable="0" vertex="1">
                    <mxGeometry x="1" relative="1" as="geometry">
                        <mxPoint x="160" y="21" as="offset"/>
                    </mxGeometry>
                </mxCell>
                <mxCell id="UVPNnTYAwM3Xo7iVTWcv-12" value="&lt;font color=&quot;#000000&quot;&gt;1&lt;/font&gt;" style="resizable=0;html=1;align=right;verticalAlign=top;labelBackgroundColor=none;fontColor=#0000FF;strokeColor=#0000FF;" parent="UVPNnTYAwM3Xo7iVTWcv-9" connectable="0" vertex="1">
                    <mxGeometry x="1" relative="1" as="geometry">
                        <mxPoint x="29" y="-29" as="offset"/>
                    </mxGeometry>
                </mxCell>
                <mxCell id="UVPNnTYAwM3Xo7iVTWcv-14" value="Servizio" style="swimlane;fontStyle=0;childLayout=stackLayout;horizontal=1;startSize=26;horizontalStack=0;resizeParent=1;resizeParentMax=0;resizeLast=0;collapsible=1;marginBottom=0;labelBackgroundColor=none;" parent="1" vertex="1">
                    <mxGeometry x="140" y="736" width="140" height="140" as="geometry"/>
                </mxCell>
                <mxCell id="UVPNnTYAwM3Xo7iVTWcv-15" value="inizio: ora&#10;fine: ora&#10;giorno: data&#10;tipo: testo&#10;menuApprovato: sì/no&#10;modificheMenu: testo&#10;luogo: testo" style="text;strokeColor=none;fillColor=none;align=left;verticalAlign=top;spacingLeft=4;spacingRight=4;overflow=hidden;rotatable=0;points=[[0,0.5],[1,0.5]];portConstraint=eastwest;labelBackgroundColor=none;fontColor=#FFFFFF;" parent="UVPNnTYAwM3Xo7iVTWcv-14" vertex="1">
                    <mxGeometry y="26" width="140" height="114" as="geometry"/>
                </mxCell>
                <mxCell id="OorJLYem-8eahj1t15pe-5" value="" style="endArrow=none;html=1;rounded=0;exitX=0.997;exitY=0.248;exitDx=0;exitDy=0;exitPerimeter=0;" parent="1" source="UVPNnTYAwM3Xo7iVTWcv-15" target="OorJLYem-8eahj1t15pe-7" edge="1">
                    <mxGeometry width="50" height="50" relative="1" as="geometry">
                        <mxPoint x="280" y="788" as="sourcePoint"/>
                        <mxPoint x="360" y="790" as="targetPoint"/>
                    </mxGeometry>
                </mxCell>
                <mxCell id="OorJLYem-8eahj1t15pe-6" value="Foglio riepilogativo" style="swimlane;fontStyle=0;childLayout=stackLayout;horizontal=1;startSize=26;horizontalStack=0;resizeParent=1;resizeParentMax=0;resizeLast=0;collapsible=1;marginBottom=0;labelBackgroundColor=none;" parent="1" vertex="1">
                    <mxGeometry x="560" y="750" width="140" height="52" as="geometry"/>
                </mxCell>
                <mxCell id="OorJLYem-8eahj1t15pe-7" value="informazioni" style="text;strokeColor=none;fillColor=none;align=left;verticalAlign=top;spacingLeft=4;spacingRight=4;overflow=hidden;rotatable=0;points=[[0,0.5],[1,0.5]];portConstraint=eastwest;labelBackgroundColor=none;fontColor=#000000;" parent="OorJLYem-8eahj1t15pe-6" vertex="1">
                    <mxGeometry y="26" width="140" height="26" as="geometry"/>
                </mxCell>
                <mxCell id="OorJLYem-8eahj1t15pe-8" value="&lt;font color=&quot;#ffffff&quot; style=&quot;font-size: 14px;&quot;&gt;&lt;font style=&quot;font-size: 14px;&quot;&gt;è relativo a&amp;nbsp;&lt;/font&gt;&lt;span style=&quot;font-family: arial, sans-serif; text-align: left;&quot;&gt;&lt;font style=&quot;font-size: 14px;&quot;&gt;▶&lt;/font&gt;&lt;/span&gt;&lt;/font&gt;" style="resizable=0;html=1;align=right;verticalAlign=bottom;labelBackgroundColor=none;fontColor=#0000FF;strokeColor=#0000FF;" parent="1" connectable="0" vertex="1">
                    <mxGeometry x="469.9981481481483" y="790.0000000000001" as="geometry"/>
                </mxCell>
                <mxCell id="OorJLYem-8eahj1t15pe-9" value="&lt;font color=&quot;#000000&quot;&gt;1&lt;/font&gt;" style="resizable=0;html=1;align=right;verticalAlign=top;labelBackgroundColor=none;fontColor=#0000FF;strokeColor=#0000FF;" parent="1" connectable="0" vertex="1">
                    <mxGeometry x="289.9981481481483" y="770" as="geometry">
                        <mxPoint x="11" y="-1" as="offset"/>
                    </mxGeometry>
                </mxCell>
                <mxCell id="OorJLYem-8eahj1t15pe-10" value="0..1" style="resizable=0;html=1;align=right;verticalAlign=top;labelBackgroundColor=none;" parent="1" connectable="0" vertex="1">
                    <mxGeometry x="560" y="766" as="geometry"/>
                </mxCell>
                <mxCell id="OorJLYem-8eahj1t15pe-54" value="Mansione di cucina" style="swimlane;fontStyle=0;childLayout=stackLayout;horizontal=1;startSize=26;horizontalStack=0;resizeParent=1;resizeParentMax=0;resizeLast=0;collapsible=1;marginBottom=0;labelBackgroundColor=none;" parent="1" vertex="1">
                    <mxGeometry x="1003" y="549.32" width="140" height="52" as="geometry"/>
                </mxCell>
                <mxCell id="OorJLYem-8eahj1t15pe-58" value="Ricettario" style="swimlane;fontStyle=0;childLayout=stackLayout;horizontal=1;startSize=26;horizontalStack=0;resizeParent=1;resizeParentMax=0;resizeLast=0;collapsible=1;marginBottom=0;labelBackgroundColor=none;" parent="1" vertex="1">
                    <mxGeometry x="1323" y="660.32" width="140" height="52" as="geometry"/>
                </mxCell>
                <mxCell id="OorJLYem-8eahj1t15pe-61" value="" style="endArrow=none;html=1;rounded=0;entryX=0.75;entryY=1;entryDx=0;entryDy=0;" parent="1" target="78LwuEahcBiL7WYBxUG0-7" edge="1">
                    <mxGeometry width="50" height="50" relative="1" as="geometry">
                        <mxPoint x="1143" y="580.32" as="sourcePoint"/>
                        <mxPoint x="1193" y="460.32" as="targetPoint"/>
                        <Array as="points">
                            <mxPoint x="1276" y="580"/>
                        </Array>
                    </mxGeometry>
                </mxCell>
                <mxCell id="OorJLYem-8eahj1t15pe-62" value="" style="endArrow=none;html=1;rounded=0;exitX=0;exitY=0.75;exitDx=0;exitDy=0;" parent="1" source="OorJLYem-8eahj1t15pe-58" edge="1">
                    <mxGeometry width="50" height="50" relative="1" as="geometry">
                        <mxPoint x="1103" y="610.32" as="sourcePoint"/>
                        <mxPoint x="1143" y="590.32" as="targetPoint"/>
                        <Array as="points">
                            <mxPoint x="1213" y="700.32"/>
                            <mxPoint x="1213" y="590.32"/>
                        </Array>
                    </mxGeometry>
                </mxCell>
                <mxCell id="OorJLYem-8eahj1t15pe-63" value="0..n" style="resizable=0;html=1;align=left;verticalAlign=top;labelBackgroundColor=none;" parent="1" connectable="0" vertex="1">
                    <mxGeometry x="1280" y="482.32" as="geometry"/>
                </mxCell>
                <mxCell id="OorJLYem-8eahj1t15pe-64" value="&lt;span style=&quot;font-size: 15px;&quot;&gt;◀︎&lt;/span&gt;è ingrediente di" style="resizable=0;html=1;align=right;verticalAlign=bottom;labelBackgroundColor=none;" parent="1" connectable="0" vertex="1">
                    <mxGeometry x="1262.9972727272725" y="575.32" as="geometry"/>
                </mxCell>
                <mxCell id="OorJLYem-8eahj1t15pe-65" value="0..n" style="resizable=0;html=1;align=left;verticalAlign=top;labelBackgroundColor=none;" parent="1" connectable="0" vertex="1">
                    <mxGeometry x="1143" y="560.32" as="geometry"/>
                </mxCell>
                <mxCell id="OorJLYem-8eahj1t15pe-66" value="0..n" style="resizable=0;html=1;align=left;verticalAlign=top;labelBackgroundColor=none;" parent="1" connectable="0" vertex="1">
                    <mxGeometry x="1143" y="583.32" as="geometry"/>
                </mxCell>
                <mxCell id="OorJLYem-8eahj1t15pe-67" value="&lt;font color=&quot;#000000&quot;&gt;1&lt;/font&gt;" style="resizable=0;html=1;align=left;verticalAlign=top;labelBackgroundColor=none;fontColor=#0000FF;" parent="1" connectable="0" vertex="1">
                    <mxGeometry x="1313" y="680.32" as="geometry"/>
                </mxCell>
                <mxCell id="OorJLYem-8eahj1t15pe-68" value="" style="endArrow=none;html=1;rounded=0;entryX=0.716;entryY=1;entryDx=0;entryDy=0;entryPerimeter=0;exitX=0;exitY=0.75;exitDx=0;exitDy=0;" parent="1" source="OorJLYem-8eahj1t15pe-54" target="78LwuEahcBiL7WYBxUG0-10" edge="1">
                    <mxGeometry width="50" height="50" relative="1" as="geometry">
                        <mxPoint x="580" y="510" as="sourcePoint"/>
                        <mxPoint x="630" y="460" as="targetPoint"/>
                        <Array as="points">
                            <mxPoint x="480" y="588"/>
                            <mxPoint x="480" y="300"/>
                            <mxPoint x="240" y="300"/>
                        </Array>
                    </mxGeometry>
                </mxCell>
                <mxCell id="OorJLYem-8eahj1t15pe-69" value="" style="endArrow=none;html=1;rounded=0;entryX=0.25;entryY=1;entryDx=0;entryDy=0;exitX=1;exitY=0.5;exitDx=0;exitDy=0;" parent="1" source="OorJLYem-8eahj1t15pe-7" target="OorJLYem-8eahj1t15pe-54" edge="1">
                    <mxGeometry width="50" height="50" relative="1" as="geometry">
                        <mxPoint x="580" y="660" as="sourcePoint"/>
                        <mxPoint x="630" y="610" as="targetPoint"/>
                        <Array as="points">
                            <mxPoint x="1038" y="789"/>
                        </Array>
                    </mxGeometry>
                </mxCell>
                <mxCell id="OorJLYem-8eahj1t15pe-70" value="0..n" style="resizable=0;html=1;align=left;verticalAlign=top;labelBackgroundColor=none;" parent="1" connectable="0" vertex="1">
                    <mxGeometry x="700" y="766" as="geometry"/>
                </mxCell>
                <mxCell id="OorJLYem-8eahj1t15pe-71" value="0..n" style="resizable=0;html=1;align=left;verticalAlign=top;labelBackgroundColor=none;" parent="1" connectable="0" vertex="1">
                    <mxGeometry x="1013" y="595.32" as="geometry"/>
                </mxCell>
                <mxCell id="OorJLYem-8eahj1t15pe-73" value="&lt;font color=&quot;#ffffff&quot;&gt;&lt;span style=&quot;font-size: 15px;&quot;&gt;◀︎&lt;/span&gt;&lt;font style=&quot;font-size: 14px;&quot;&gt;è richiesta da&lt;/font&gt;&lt;/font&gt;&lt;div&gt;&lt;font color=&quot;#ffffff&quot; style=&quot;font-size: 14px;&quot;&gt;{ordered}&lt;/font&gt;&lt;/div&gt;" style="resizable=0;html=1;align=right;verticalAlign=bottom;labelBackgroundColor=none;fontColor=#0000FF;strokeColor=#0000FF;" parent="1" connectable="0" vertex="1">
                    <mxGeometry x="1002.9981481481482" y="790.0000000000002" as="geometry"/>
                </mxCell>
                <mxCell id="OorJLYem-8eahj1t15pe-74" value="" style="endArrow=none;dashed=1;html=1;rounded=0;exitX=0.5;exitY=0;exitDx=0;exitDy=0;" parent="1" source="OorJLYem-8eahj1t15pe-75" edge="1">
                    <mxGeometry width="50" height="50" relative="1" as="geometry">
                        <mxPoint x="880" y="880" as="sourcePoint"/>
                        <mxPoint x="880" y="790" as="targetPoint"/>
                    </mxGeometry>
                </mxCell>
                <mxCell id="OorJLYem-8eahj1t15pe-75" value="Disponibilità" style="swimlane;fontStyle=0;childLayout=stackLayout;horizontal=1;startSize=26;horizontalStack=0;resizeParent=1;resizeParentMax=0;resizeLast=0;collapsible=1;marginBottom=0;labelBackgroundColor=none;" parent="1" vertex="1">
                    <mxGeometry x="810" y="880" width="140" height="52" as="geometry"/>
                </mxCell>
                <mxCell id="OorJLYem-8eahj1t15pe-76" value="informazioni" style="text;strokeColor=none;fillColor=none;align=left;verticalAlign=top;spacingLeft=4;spacingRight=4;overflow=hidden;rotatable=0;points=[[0,0.5],[1,0.5]];portConstraint=eastwest;labelBackgroundColor=none;fontColor=#000000;" parent="OorJLYem-8eahj1t15pe-75" vertex="1">
                    <mxGeometry y="26" width="140" height="26" as="geometry"/>
                </mxCell>
                <mxCell id="OorJLYem-8eahj1t15pe-77" value="Compito" style="swimlane;fontStyle=0;childLayout=stackLayout;horizontal=1;startSize=26;horizontalStack=0;resizeParent=1;resizeParentMax=0;resizeLast=0;collapsible=1;marginBottom=0;labelBackgroundColor=none;" parent="1" vertex="1">
                    <mxGeometry x="1023" y="950" width="140" height="80" as="geometry"/>
                </mxCell>
                <mxCell id="OorJLYem-8eahj1t15pe-81" value="" style="endArrow=classic;html=1;rounded=0;exitX=0;exitY=0.5;exitDx=0;exitDy=0;endFill=1;entryX=0.628;entryY=0.988;entryDx=0;entryDy=0;entryPerimeter=0;" parent="OorJLYem-8eahj1t15pe-77" target="xxu-n_cGPCBa5pTc6vbV-13" edge="1">
                    <mxGeometry width="50" height="50" relative="1" as="geometry">
                        <mxPoint y="67" as="sourcePoint"/>
                        <mxPoint x="87" y="90" as="targetPoint"/>
                        <Array as="points">
                            <mxPoint x="-83" y="68"/>
                            <mxPoint x="-83" y="130"/>
                            <mxPoint x="7" y="130"/>
                            <mxPoint x="88" y="130"/>
                        </Array>
                    </mxGeometry>
                </mxCell>
                <mxCell id="xxu-n_cGPCBa5pTc6vbV-13" value="tempo: numero&#10;quantità: testo&#10;completato: si/no" style="text;strokeColor=none;fillColor=none;align=left;verticalAlign=top;spacingLeft=4;spacingRight=4;overflow=hidden;rotatable=0;points=[[0,0.5],[1,0.5]];portConstraint=eastwest;labelBackgroundColor=none;fontColor=#FFFFFF;" parent="OorJLYem-8eahj1t15pe-77" vertex="1">
                    <mxGeometry y="26" width="140" height="54" as="geometry"/>
                </mxCell>
                <mxCell id="OorJLYem-8eahj1t15pe-79" value="" style="endArrow=none;html=1;rounded=0;exitX=0.745;exitY=0.995;exitDx=0;exitDy=0;exitPerimeter=0;entryX=0;entryY=0.5;entryDx=0;entryDy=0;" parent="1" source="OorJLYem-8eahj1t15pe-7" edge="1">
                    <mxGeometry width="50" height="50" relative="1" as="geometry">
                        <mxPoint x="664.0200000000002" y="793.8699999999999" as="sourcePoint"/>
                        <mxPoint x="1023" y="981" as="targetPoint"/>
                        <Array as="points">
                            <mxPoint x="664" y="981"/>
                        </Array>
                    </mxGeometry>
                </mxCell>
                <mxCell id="OorJLYem-8eahj1t15pe-82" value="&lt;span style=&quot;font-size: 15px;&quot;&gt;&lt;font color=&quot;#ffffff&quot;&gt;è la prosecuzione di&lt;/font&gt;&lt;/span&gt;" style="resizable=0;html=1;align=right;verticalAlign=bottom;labelBackgroundColor=none;fontColor=#0000FF;strokeColor=#0000FF;" parent="1" connectable="0" vertex="1">
                    <mxGeometry x="1079.9981481481482" y="1080.0000000000002" as="geometry"/>
                </mxCell>
                <mxCell id="OorJLYem-8eahj1t15pe-83" value="" style="endArrow=none;html=1;rounded=0;" parent="1" edge="1">
                    <mxGeometry width="50" height="50" relative="1" as="geometry">
                        <mxPoint x="1140" y="1160" as="sourcePoint"/>
                        <mxPoint x="1140" y="1030" as="targetPoint"/>
                    </mxGeometry>
                </mxCell>
                <mxCell id="OorJLYem-8eahj1t15pe-84" value="Turno di cucina" style="swimlane;fontStyle=0;childLayout=stackLayout;horizontal=1;startSize=26;horizontalStack=0;resizeParent=1;resizeParentMax=0;resizeLast=0;collapsible=1;marginBottom=0;labelBackgroundColor=none;" parent="1" vertex="1">
                    <mxGeometry x="1030" y="1160" width="140" height="52" as="geometry"/>
                </mxCell>
                <mxCell id="OorJLYem-8eahj1t15pe-85" value="completo: sì/no" style="text;strokeColor=none;fillColor=none;align=left;verticalAlign=top;spacingLeft=4;spacingRight=4;overflow=hidden;rotatable=0;points=[[0,0.5],[1,0.5]];portConstraint=eastwest;labelBackgroundColor=none;fontColor=#000000;" parent="OorJLYem-8eahj1t15pe-84" vertex="1">
                    <mxGeometry y="26" width="140" height="26" as="geometry"/>
                </mxCell>
                <mxCell id="OorJLYem-8eahj1t15pe-86" value="Turno di servizio" style="swimlane;fontStyle=0;childLayout=stackLayout;horizontal=1;startSize=26;horizontalStack=0;resizeParent=1;resizeParentMax=0;resizeLast=0;collapsible=1;marginBottom=0;labelBackgroundColor=none;" parent="1" vertex="1">
                    <mxGeometry x="1030" y="1280" width="140" height="80" as="geometry"/>
                </mxCell>
                <mxCell id="OorJLYem-8eahj1t15pe-90" value="Turno" style="swimlane;fontStyle=0;childLayout=stackLayout;horizontal=1;startSize=26;horizontalStack=0;resizeParent=1;resizeParentMax=0;resizeLast=0;collapsible=1;marginBottom=0;labelBackgroundColor=none;" parent="1" vertex="1">
                    <mxGeometry x="1263" y="1210" width="140" height="130" as="geometry"/>
                </mxCell>
                <mxCell id="OorJLYem-8eahj1t15pe-115" value="" style="endArrow=classic;html=1;rounded=0;exitX=0.107;exitY=1.01;exitDx=0;exitDy=0;exitPerimeter=0;endFill=1;entryX=0.914;entryY=1.007;entryDx=0;entryDy=0;entryPerimeter=0;" parent="OorJLYem-8eahj1t15pe-90" source="OorJLYem-8eahj1t15pe-91" target="OorJLYem-8eahj1t15pe-91" edge="1">
                    <mxGeometry width="50" height="50" relative="1" as="geometry">
                        <mxPoint x="17.360000000000127" y="115.9739999999997" as="sourcePoint"/>
                        <mxPoint x="127.53999999999996" y="118.40399999999977" as="targetPoint"/>
                        <Array as="points">
                            <mxPoint x="15" y="150"/>
                            <mxPoint x="128" y="150"/>
                        </Array>
                    </mxGeometry>
                </mxCell>
                <mxCell id="OorJLYem-8eahj1t15pe-91" value="data: data&#10;luogo : testo&#10;inizio: orario&#10;fine: orario&#10;dataScadenza:data&#10;/stato temporale" style="text;strokeColor=none;fillColor=none;align=left;verticalAlign=top;spacingLeft=4;spacingRight=4;overflow=hidden;rotatable=0;points=[[0,0.5],[1,0.5]];portConstraint=eastwest;labelBackgroundColor=none;fontColor=#FFFFFF;" parent="OorJLYem-8eahj1t15pe-90" vertex="1">
                    <mxGeometry y="26" width="140" height="104" as="geometry"/>
                </mxCell>
                <mxCell id="OorJLYem-8eahj1t15pe-92" value="Cuoco" style="swimlane;fontStyle=0;childLayout=stackLayout;horizontal=1;startSize=26;horizontalStack=0;resizeParent=1;resizeParentMax=0;resizeLast=0;collapsible=1;marginBottom=0;labelBackgroundColor=none;" parent="1" vertex="1">
                    <mxGeometry x="1550" y="1215" width="140" height="80" as="geometry"/>
                </mxCell>
                <mxCell id="OorJLYem-8eahj1t15pe-93" value="nome: testoruolo&#10;Opzionale: testo" style="text;strokeColor=none;fillColor=none;align=left;verticalAlign=top;spacingLeft=4;spacingRight=4;overflow=hidden;rotatable=0;points=[[0,0.5],[1,0.5]];portConstraint=eastwest;labelBackgroundColor=none;fontColor=#FFFFFF;" parent="OorJLYem-8eahj1t15pe-92" vertex="1">
                    <mxGeometry y="26" width="140" height="54" as="geometry"/>
                </mxCell>
                <mxCell id="OorJLYem-8eahj1t15pe-95" value="Addetto al servizio" style="swimlane;fontStyle=0;childLayout=stackLayout;horizontal=1;startSize=26;horizontalStack=0;resizeParent=1;resizeParentMax=0;resizeLast=0;collapsible=1;marginBottom=0;labelBackgroundColor=none;" parent="1" vertex="1">
                    <mxGeometry x="1050" y="1486" width="140" height="80" as="geometry"/>
                </mxCell>
                <mxCell id="OorJLYem-8eahj1t15pe-96" value="nome: testo&#10;id: numero&#10;ruolo: testo" style="text;strokeColor=none;fillColor=none;align=left;verticalAlign=top;spacingLeft=4;spacingRight=4;overflow=hidden;rotatable=0;points=[[0,0.5],[1,0.5]];portConstraint=eastwest;labelBackgroundColor=none;fontColor=#FFFFFF;" parent="OorJLYem-8eahj1t15pe-95" vertex="1">
                    <mxGeometry y="26" width="140" height="54" as="geometry"/>
                </mxCell>
                <mxCell id="OorJLYem-8eahj1t15pe-105" value="" style="endArrow=none;html=1;rounded=0;entryX=0.639;entryY=1.005;entryDx=0;entryDy=0;entryPerimeter=0;" parent="1" target="OorJLYem-8eahj1t15pe-85" edge="1">
                    <mxGeometry width="50" height="50" relative="1" as="geometry">
                        <mxPoint x="1120" y="1280" as="sourcePoint"/>
                        <mxPoint x="1000" y="1180" as="targetPoint"/>
                    </mxGeometry>
                </mxCell>
                <mxCell id="OorJLYem-8eahj1t15pe-106" style="edgeStyle=orthogonalEdgeStyle;rounded=0;orthogonalLoop=1;jettySize=auto;html=1;exitX=1;exitY=0.5;exitDx=0;exitDy=0;" parent="1" source="OorJLYem-8eahj1t15pe-85" edge="1">
                    <mxGeometry relative="1" as="geometry">
                        <mxPoint x="1263" y="1260" as="targetPoint"/>
                        <Array as="points">
                            <mxPoint x="1217" y="1199"/>
                            <mxPoint x="1217" y="1260"/>
                            <mxPoint x="1263" y="1260"/>
                        </Array>
                    </mxGeometry>
                </mxCell>
                <mxCell id="OorJLYem-8eahj1t15pe-107" style="edgeStyle=orthogonalEdgeStyle;rounded=0;orthogonalLoop=1;jettySize=auto;html=1;exitX=1;exitY=0.5;exitDx=0;exitDy=0;entryX=0;entryY=0.5;entryDx=0;entryDy=0;" parent="1" target="OorJLYem-8eahj1t15pe-91" edge="1">
                    <mxGeometry relative="1" as="geometry">
                        <mxPoint x="1240" y="1270" as="targetPoint"/>
                        <mxPoint x="1170" y="1333" as="sourcePoint"/>
                    </mxGeometry>
                </mxCell>
                <mxCell id="OorJLYem-8eahj1t15pe-110" value="" style="endArrow=none;html=1;rounded=0;entryX=0;entryY=0.5;entryDx=0;entryDy=0;exitX=1.007;exitY=0.304;exitDx=0;exitDy=0;exitPerimeter=0;" parent="1" source="OorJLYem-8eahj1t15pe-91" target="OorJLYem-8eahj1t15pe-93" edge="1">
                    <mxGeometry width="50" height="50" relative="1" as="geometry">
                        <mxPoint x="1330" y="1340" as="sourcePoint"/>
                        <mxPoint x="1380" y="1290" as="targetPoint"/>
                    </mxGeometry>
                </mxCell>
                <mxCell id="OorJLYem-8eahj1t15pe-111" value="" style="endArrow=none;html=1;rounded=0;exitX=0.636;exitY=1.009;exitDx=0;exitDy=0;exitPerimeter=0;entryX=0.5;entryY=0;entryDx=0;entryDy=0;" parent="1" target="OorJLYem-8eahj1t15pe-95" edge="1">
                    <mxGeometry width="50" height="50" relative="1" as="geometry">
                        <mxPoint x="1119.04" y="1360.4859999999999" as="sourcePoint"/>
                        <mxPoint x="1121" y="1535" as="targetPoint"/>
                        <Array as="points">
                            <mxPoint x="1119" y="1399"/>
                        </Array>
                    </mxGeometry>
                </mxCell>
                <mxCell id="OorJLYem-8eahj1t15pe-114" value="" style="endArrow=none;html=1;rounded=0;entryX=1;entryY=0.5;entryDx=0;entryDy=0;exitX=0.75;exitY=0;exitDx=0;exitDy=0;" parent="1" source="OorJLYem-8eahj1t15pe-92" edge="1">
                    <mxGeometry width="50" height="50" relative="1" as="geometry">
                        <mxPoint x="1590" y="1250" as="sourcePoint"/>
                        <mxPoint x="1163" y="989" as="targetPoint"/>
                        <Array as="points">
                            <mxPoint x="1655" y="1160"/>
                            <mxPoint x="1920" y="1160"/>
                            <mxPoint x="1920" y="989"/>
                        </Array>
                    </mxGeometry>
                </mxCell>
                <mxCell id="OorJLYem-8eahj1t15pe-117" value="&lt;span style=&quot;font-size: 15px;&quot;&gt;&lt;font color=&quot;#ffffff&quot;&gt;/è precedente a&lt;/font&gt;&lt;/span&gt;" style="resizable=0;html=1;align=right;verticalAlign=bottom;labelBackgroundColor=none;fontColor=#0000FF;strokeColor=#0000FF;" parent="1" connectable="0" vertex="1">
                    <mxGeometry x="1384.9981481481482" y="1381.0000000000002" as="geometry"/>
                </mxCell>
                <mxCell id="OorJLYem-8eahj1t15pe-118" value="" style="endArrow=none;html=1;rounded=0;exitX=0.5;exitY=0;exitDx=0;exitDy=0;entryX=0.5;entryY=1;entryDx=0;entryDy=0;" parent="1" source="UVPNnTYAwM3Xo7iVTWcv-14" target="78LwuEahcBiL7WYBxUG0-9" edge="1">
                    <mxGeometry width="50" height="50" relative="1" as="geometry">
                        <mxPoint x="520" y="620" as="sourcePoint"/>
                        <mxPoint x="240" y="330" as="targetPoint"/>
                    </mxGeometry>
                </mxCell>
                <mxCell id="OorJLYem-8eahj1t15pe-120" value="&lt;span style=&quot;font-size: 15px;&quot;&gt;◀︎&lt;/span&gt;&lt;font style=&quot;font-size: 14px;&quot;&gt;appartiene&lt;/font&gt;" style="resizable=0;html=1;align=right;verticalAlign=bottom;labelBackgroundColor=none;" parent="1" connectable="0" vertex="1">
                    <mxGeometry x="1530.003333333333" y="1267" as="geometry"/>
                </mxCell>
                <mxCell id="OorJLYem-8eahj1t15pe-122" value="0..1" style="resizable=0;html=1;align=right;verticalAlign=top;labelBackgroundColor=none;" parent="1" connectable="0" vertex="1">
                    <mxGeometry x="660" y="802" as="geometry"/>
                </mxCell>
                <mxCell id="OorJLYem-8eahj1t15pe-123" value="0..n" style="resizable=0;html=1;align=right;verticalAlign=top;labelBackgroundColor=none;" parent="1" connectable="0" vertex="1">
                    <mxGeometry x="1023" y="960" as="geometry"/>
                </mxCell>
                <mxCell id="OorJLYem-8eahj1t15pe-124" value="&lt;font color=&quot;#ffffff&quot;&gt;&lt;font style=&quot;font-size: 13px;&quot;&gt;riepiloga&amp;nbsp;&lt;/font&gt;&lt;span style=&quot;font-family: arial, sans-serif; font-size: 16px; text-align: left;&quot;&gt;▶&lt;/span&gt;&lt;/font&gt;" style="resizable=0;html=1;align=right;verticalAlign=bottom;labelBackgroundColor=none;fontColor=#0000FF;strokeColor=#0000FF;" parent="1" connectable="0" vertex="1">
                    <mxGeometry x="749.9981481481482" y="978.0000000000002" as="geometry"/>
                </mxCell>
                <mxCell id="OorJLYem-8eahj1t15pe-125" value="0..1" style="resizable=0;html=1;align=right;verticalAlign=top;labelBackgroundColor=none;" parent="1" connectable="0" vertex="1">
                    <mxGeometry x="1024" y="993" as="geometry"/>
                </mxCell>
                <mxCell id="OorJLYem-8eahj1t15pe-126" value="0..1" style="resizable=0;html=1;align=right;verticalAlign=top;labelBackgroundColor=none;" parent="1" connectable="0" vertex="1">
                    <mxGeometry x="1100" y="1030" as="geometry"/>
                </mxCell>
                <mxCell id="OorJLYem-8eahj1t15pe-127" value="0..n" style="resizable=0;html=1;align=right;verticalAlign=top;labelBackgroundColor=none;" parent="1" connectable="0" vertex="1">
                    <mxGeometry x="1163" y="1025" as="geometry"/>
                </mxCell>
                <mxCell id="OorJLYem-8eahj1t15pe-128" value="0..n" style="resizable=0;html=1;align=right;verticalAlign=top;labelBackgroundColor=none;" parent="1" connectable="0" vertex="1">
                    <mxGeometry x="1187" y="967" as="geometry"/>
                </mxCell>
                <mxCell id="OorJLYem-8eahj1t15pe-129" value="si svolge in un&lt;span style=&quot;font-family: arial, sans-serif; font-size: 16px; text-align: left;&quot;&gt;▼&lt;/span&gt;" style="resizable=0;html=1;align=right;verticalAlign=bottom;labelBackgroundColor=none;" parent="1" connectable="0" vertex="1">
                    <mxGeometry x="1238.003333333333" y="1080" as="geometry"/>
                </mxCell>
                <mxCell id="OorJLYem-8eahj1t15pe-130" value="1" style="resizable=0;html=1;align=right;verticalAlign=top;labelBackgroundColor=none;" parent="1" connectable="0" vertex="1">
                    <mxGeometry x="1150" y="1139" as="geometry"/>
                </mxCell>
                <mxCell id="OorJLYem-8eahj1t15pe-131" value="1" style="resizable=0;html=1;align=right;verticalAlign=top;labelBackgroundColor=none;" parent="1" connectable="0" vertex="1">
                    <mxGeometry x="1030" y="1174" as="geometry"/>
                </mxCell>
                <mxCell id="OorJLYem-8eahj1t15pe-134" value="0..n" style="resizable=0;html=1;align=right;verticalAlign=top;labelBackgroundColor=none;" parent="1" connectable="0" vertex="1">
                    <mxGeometry x="1143" y="1360" as="geometry"/>
                </mxCell>
                <mxCell id="OorJLYem-8eahj1t15pe-135" value="0..n" style="resizable=0;html=1;align=right;verticalAlign=top;labelBackgroundColor=none;" parent="1" connectable="0" vertex="1">
                    <mxGeometry x="1040" y="1506" as="geometry"/>
                </mxCell>
                <mxCell id="OorJLYem-8eahj1t15pe-136" value="0..n" style="resizable=0;html=1;align=right;verticalAlign=top;labelBackgroundColor=none;" parent="1" connectable="0" vertex="1">
                    <mxGeometry x="1428" y="1262" as="geometry"/>
                </mxCell>
                <mxCell id="OorJLYem-8eahj1t15pe-137" value="0..n" style="resizable=0;html=1;align=right;verticalAlign=top;labelBackgroundColor=none;" parent="1" connectable="0" vertex="1">
                    <mxGeometry x="1546" y="1262" as="geometry"/>
                </mxCell>
                <mxCell id="OorJLYem-8eahj1t15pe-138" value="0..1" style="resizable=0;html=1;align=right;verticalAlign=top;labelBackgroundColor=none;" parent="1" connectable="0" vertex="1">
                    <mxGeometry x="1683" y="1186" as="geometry"/>
                </mxCell>
                <mxCell id="OorJLYem-8eahj1t15pe-139" value="&lt;span style=&quot;font-size: 15px;&quot;&gt;◀︎&lt;/span&gt;è assegnato a" style="resizable=0;html=1;align=right;verticalAlign=bottom;labelBackgroundColor=none;" parent="1" connectable="0" vertex="1">
                    <mxGeometry x="1654.003333333333" y="987" as="geometry"/>
                </mxCell>
                <mxCell id="sameQor3C2hbWJlBvYg5-1" value="Tabellone dei turni" style="swimlane;fontStyle=0;childLayout=stackLayout;horizontal=1;startSize=26;horizontalStack=0;resizeParent=1;resizeParentMax=0;resizeLast=0;collapsible=1;marginBottom=0;labelBackgroundColor=none;" parent="1" vertex="1">
                    <mxGeometry x="-180" y="978" width="140" height="52" as="geometry"/>
                </mxCell>
                <mxCell id="sameQor3C2hbWJlBvYg5-2" value="informazioni" style="text;strokeColor=none;fillColor=none;align=left;verticalAlign=top;spacingLeft=4;spacingRight=4;overflow=hidden;rotatable=0;points=[[0,0.5],[1,0.5]];portConstraint=eastwest;labelBackgroundColor=none;fontColor=#FFFFFF;" parent="sameQor3C2hbWJlBvYg5-1" vertex="1">
                    <mxGeometry y="26" width="140" height="26" as="geometry"/>
                </mxCell>
                <mxCell id="sameQor3C2hbWJlBvYg5-3" value="" style="endArrow=none;html=1;rounded=0;exitX=0.5;exitY=0;exitDx=0;exitDy=0;entryX=0.495;entryY=0.994;entryDx=0;entryDy=0;entryPerimeter=0;" parent="1" source="sameQor3C2hbWJlBvYg5-1" target="UVPNnTYAwM3Xo7iVTWcv-4" edge="1">
                    <mxGeometry width="50" height="50" relative="1" as="geometry">
                        <mxPoint x="-50" y="1010" as="sourcePoint"/>
                        <mxPoint x="-110" y="800" as="targetPoint"/>
                    </mxGeometry>
                </mxCell>
                <mxCell id="sameQor3C2hbWJlBvYg5-4" value="" style="endArrow=none;html=1;rounded=0;exitX=0.987;exitY=-0.145;exitDx=0;exitDy=0;entryX=0.5;entryY=0;entryDx=0;entryDy=0;exitPerimeter=0;" parent="1" source="sameQor3C2hbWJlBvYg5-2" target="OorJLYem-8eahj1t15pe-90" edge="1">
                    <mxGeometry width="50" height="50" relative="1" as="geometry">
                        <mxPoint x="-40" y="1030" as="sourcePoint"/>
                        <mxPoint x="1333" y="1243" as="targetPoint"/>
                        <Array as="points">
                            <mxPoint x="640" y="1000"/>
                            <mxPoint x="640" y="1103"/>
                            <mxPoint x="1333" y="1103"/>
                        </Array>
                    </mxGeometry>
                </mxCell>
                <mxCell id="xxu-n_cGPCBa5pTc6vbV-1" value="&lt;font color=&quot;#ffffff&quot;&gt;/serve per&amp;nbsp;&lt;span style=&quot;font-family: arial, sans-serif; font-size: 16px; text-align: left;&quot;&gt;▶&lt;/span&gt;&lt;/font&gt;" style="resizable=0;html=1;align=right;verticalAlign=bottom;labelBackgroundColor=none;fontColor=#0000FF;" parent="1" connectable="0" vertex="1">
                    <mxGeometry x="620.0000000000005" y="585.0019977525058" as="geometry"/>
                </mxCell>
                <mxCell id="xxu-n_cGPCBa5pTc6vbV-2" value="&lt;font color=&quot;#ffffff&quot;&gt;in uso in&amp;nbsp;&lt;span style=&quot;font-family: arial, sans-serif; font-size: 16px; text-align: left;&quot;&gt;▼&lt;/span&gt;&lt;/font&gt;" style="resizable=0;html=1;align=right;verticalAlign=bottom;labelBackgroundColor=none;fontColor=#0000FF;" parent="1" connectable="0" vertex="1">
                    <mxGeometry x="280.00000000000045" y="482.32199775250575" as="geometry"/>
                </mxCell>
                <mxCell id="xxu-n_cGPCBa5pTc6vbV-3" value="&lt;font color=&quot;#ffffff&quot;&gt;compila&amp;nbsp;&lt;span style=&quot;font-family: arial, sans-serif; font-size: 16px; text-align: left;&quot;&gt;▼&lt;/span&gt;&lt;/font&gt;" style="resizable=0;html=1;align=right;verticalAlign=bottom;labelBackgroundColor=none;fontColor=#0000FF;strokeColor=#0000FF;" parent="1" connectable="0" vertex="1">
                    <mxGeometry x="-39.99871006874912" y="906.0010809529487" as="geometry"/>
                </mxCell>
                <mxCell id="xxu-n_cGPCBa5pTc6vbV-4" value="&lt;span style=&quot;font-size: 15px;&quot;&gt;&lt;font color=&quot;#ffffff&quot;&gt;◀︎è parte del&lt;/font&gt;&lt;/span&gt;" style="resizable=0;html=1;align=right;verticalAlign=bottom;labelBackgroundColor=none;fontColor=#0000FF;strokeColor=#0000FF;" parent="1" connectable="0" vertex="1">
                    <mxGeometry x="414.0012899312509" y="996.0010809529487" as="geometry"/>
                </mxCell>
                <mxCell id="xxu-n_cGPCBa5pTc6vbV-5" value="&lt;font color=&quot;#000000&quot;&gt;1&lt;/font&gt;" style="resizable=0;html=1;align=right;verticalAlign=top;labelBackgroundColor=none;fontColor=#0000FF;strokeColor=#0000FF;" parent="1" connectable="0" vertex="1">
                    <mxGeometry x="-110.00185185185171" y="816" as="geometry">
                        <mxPoint x="11" y="-1" as="offset"/>
                    </mxGeometry>
                </mxCell>
                <mxCell id="xxu-n_cGPCBa5pTc6vbV-6" value="&lt;font color=&quot;#000000&quot;&gt;1&lt;/font&gt;" style="resizable=0;html=1;align=right;verticalAlign=top;labelBackgroundColor=none;fontColor=#0000FF;strokeColor=#0000FF;" parent="1" connectable="0" vertex="1">
                    <mxGeometry x="-110.00185185185171" y="955" as="geometry">
                        <mxPoint x="11" y="-1" as="offset"/>
                    </mxGeometry>
                </mxCell>
                <mxCell id="xxu-n_cGPCBa5pTc6vbV-7" value="&lt;font color=&quot;#000000&quot;&gt;1&lt;/font&gt;" style="resizable=0;html=1;align=right;verticalAlign=top;labelBackgroundColor=none;fontColor=#0000FF;strokeColor=#0000FF;" parent="1" connectable="0" vertex="1">
                    <mxGeometry x="-30.00185185185171" y="978" as="geometry">
                        <mxPoint x="11" y="-1" as="offset"/>
                    </mxGeometry>
                </mxCell>
                <mxCell id="xxu-n_cGPCBa5pTc6vbV-8" value="0..n" style="resizable=0;html=1;align=right;verticalAlign=top;labelBackgroundColor=none;" parent="1" connectable="0" vertex="1">
                    <mxGeometry x="1330" y="1185.9960869565218" as="geometry"/>
                </mxCell>
                <mxCell id="xxu-n_cGPCBa5pTc6vbV-11" value="&lt;p style=&quot;margin: 0px; font-variant-numeric: normal; font-variant-east-asian: normal; font-variant-alternates: normal; font-kerning: auto; font-optical-sizing: auto; font-feature-settings: normal; font-variation-settings: normal; font-variant-position: normal; font-stretch: normal; line-height: normal; text-align: start; font-size: 10px;&quot; class=&quot;p1&quot;&gt;&lt;font style=&quot;font-size: 10px;&quot;&gt;Un Turno t1 /è precedente a un Turno t2 se:&lt;/font&gt;&lt;/p&gt;&lt;p style=&quot;margin: 0px; font-variant-numeric: normal; font-variant-east-asian: normal; font-variant-alternates: normal; font-kerning: auto; font-optical-sizing: auto; font-feature-settings: normal; font-variation-settings: normal; font-variant-position: normal; font-stretch: normal; line-height: normal; text-align: start; font-size: 10px;&quot; class=&quot;p1&quot;&gt;&lt;font style=&quot;font-size: 10px;&quot;&gt;- t1.giorno è precedente a t2.giorno&lt;/font&gt;&lt;/p&gt;&lt;p style=&quot;margin: 0px; font-variant-numeric: normal; font-variant-east-asian: normal; font-variant-alternates: normal; font-kerning: auto; font-optical-sizing: auto; font-feature-settings: normal; font-variation-settings: normal; font-variant-position: normal; font-stretch: normal; line-height: normal; text-align: start; font-size: 10px;&quot; class=&quot;p1&quot;&gt;&lt;font style=&quot;font-size: 10px;&quot;&gt;- t1.giorno è uguale a t2.giorno e t1.fine è minore o uguale a t2.inizio&lt;/font&gt;&lt;/p&gt;" style="shape=note;whiteSpace=wrap;html=1;backgroundOutline=1;darkOpacity=0.05;size=19;" parent="1" vertex="1">
                    <mxGeometry x="1360" y="1120" width="230" height="75" as="geometry"/>
                </mxCell>
                <mxCell id="F9DbkmtBMcNMcAbsMZVy-2" value="0..n" style="resizable=0;html=1;align=left;verticalAlign=top;labelBackgroundColor=none;" parent="1" connectable="0" vertex="1">
                    <mxGeometry x="-140.00000000000023" y="482.32" as="geometry"/>
                </mxCell>
                <mxCell id="_tHfZYV3yXnl6dGixIII-1" value="&lt;p style=&quot;margin: 0px; font-variant-numeric: normal; font-variant-east-asian: normal; font-variant-alternates: normal; font-kerning: auto; font-optical-sizing: auto; font-feature-settings: normal; font-variation-settings: normal; font-variant-position: normal; font-stretch: normal; font-size: 10px; line-height: normal; text-align: start;&quot; class=&quot;p1&quot;&gt;Un turno di servizio è sempre&lt;/p&gt;&lt;p style=&quot;margin: 0px; font-variant-numeric: normal; font-variant-east-asian: normal; font-variant-alternates: normal; font-kerning: auto; font-optical-sizing: auto; font-feature-settings: normal; font-variation-settings: normal; font-variant-position: normal; font-stretch: normal; font-size: 10px; line-height: normal; text-align: start;&quot; class=&quot;p1&quot;&gt;sul luogo dell'evento, uno di&lt;/p&gt;&lt;p style=&quot;margin: 0px; font-variant-numeric: normal; font-variant-east-asian: normal; font-variant-alternates: normal; font-kerning: auto; font-optical-sizing: auto; font-feature-settings: normal; font-variation-settings: normal; font-variant-position: normal; font-stretch: normal; font-size: 10px; line-height: normal; text-align: start;&quot; class=&quot;p1&quot;&gt;cucina è sempre in sede.&lt;/p&gt;" style="shape=note;whiteSpace=wrap;html=1;backgroundOutline=1;darkOpacity=0.05;size=19;" parent="1" vertex="1">
                    <mxGeometry x="1360" y="1030" width="140" height="75" as="geometry"/>
                </mxCell>
                <mxCell id="_tHfZYV3yXnl6dGixIII-2" value="&lt;br&gt;/stato temporale può assumere i valori:&lt;br&gt;- terminato, se la data del turno è precedente a quella del giorno&lt;br&gt;oppure è la medesima ma fine è precedente all'ora attuale&lt;br&gt;- in corso, se la data del turno è quella odierna e inizio è&lt;br&gt;precedente all'ora attuale e fine è successiva&lt;br&gt;- futuro, se la data è successiva a quella odierna oppure è&lt;br&gt;quella corente e inizio è successivo all'ora corrente&lt;div&gt;&lt;br/&gt;&lt;/div&gt;" style="shape=note;whiteSpace=wrap;html=1;backgroundOutline=1;darkOpacity=0.05;size=19;" parent="1" vertex="1">
                    <mxGeometry x="1560" y="997" width="340" height="134" as="geometry"/>
                </mxCell>
                <mxCell id="_tHfZYV3yXnl6dGixIII-3" value="&lt;p style=&quot;margin: 0px; font-variant-numeric: normal; font-variant-east-asian: normal; font-variant-alternates: normal; font-kerning: auto; font-optical-sizing: auto; font-feature-settings: normal; font-variation-settings: normal; font-variant-position: normal; font-stretch: normal; font-size: 10px; line-height: normal; color: rgb(0, 0, 255); text-align: start;&quot; class=&quot;p1&quot;&gt;Una voce puo' comparire in un&lt;/p&gt;&lt;p style=&quot;margin: 0px; font-variant-numeric: normal; font-variant-east-asian: normal; font-variant-alternates: normal; font-kerning: auto; font-optical-sizing: auto; font-feature-settings: normal; font-variation-settings: normal; font-variant-position: normal; font-stretch: normal; font-size: 10px; line-height: normal; color: rgb(0, 0, 255); text-align: start;&quot; class=&quot;p1&quot;&gt;menu' all'interno di una sezione&lt;/p&gt;&lt;p style=&quot;margin: 0px; font-variant-numeric: normal; font-variant-east-asian: normal; font-variant-alternates: normal; font-kerning: auto; font-optical-sizing: auto; font-feature-settings: normal; font-variation-settings: normal; font-variant-position: normal; font-stretch: normal; font-size: 10px; line-height: normal; color: rgb(0, 0, 255); text-align: start;&quot; class=&quot;p1&quot;&gt;oppure come voce &quot;libera&quot; quindi&lt;/p&gt;&lt;p style=&quot;margin: 0px; font-variant-numeric: normal; font-variant-east-asian: normal; font-variant-alternates: normal; font-kerning: auto; font-optical-sizing: auto; font-feature-settings: normal; font-variation-settings: normal; font-variant-position: normal; font-stretch: normal; font-size: 10px; line-height: normal; color: rgb(0, 0, 255); text-align: start;&quot; class=&quot;p1&quot;&gt;verrà valorizzata una e una sola&lt;/p&gt;&lt;p style=&quot;margin: 0px; font-variant-numeric: normal; font-variant-east-asian: normal; font-variant-alternates: normal; font-kerning: auto; font-optical-sizing: auto; font-feature-settings: normal; font-variation-settings: normal; font-variant-position: normal; font-stretch: normal; font-size: 10px; line-height: normal; color: rgb(0, 0, 255); text-align: start;&quot; class=&quot;p1&quot;&gt;delle due relazioni appartiene&lt;/p&gt;" style="shape=note;whiteSpace=wrap;html=1;backgroundOutline=1;darkOpacity=0.05;size=19;strokeColor=#0000FF;" parent="1" vertex="1">
                    <mxGeometry x="630" y="66" width="180" height="80" as="geometry"/>
                </mxCell>
                <mxCell id="_tHfZYV3yXnl6dGixIII-4" value="&lt;br&gt;&quot;è ingrediente di&quot; è un'associazione&lt;br&gt;transitiva, cioè se A è ingrediente di B&lt;br&gt;e C è ingrediente di B, allora C è&lt;br&gt;ingrediente di A.&lt;div&gt;&lt;br/&gt;&lt;/div&gt;" style="shape=note;whiteSpace=wrap;html=1;backgroundOutline=1;darkOpacity=0.05;size=19;" parent="1" vertex="1">
                    <mxGeometry x="1330" y="509.64" width="250" height="91.68" as="geometry"/>
                </mxCell>
                <mxCell id="UmJtmivmZBQiV6s8Z7DU-1" style="edgeStyle=orthogonalEdgeStyle;rounded=0;orthogonalLoop=1;jettySize=auto;html=1;exitX=0;exitY=0.5;exitDx=0;exitDy=0;endArrow=none;endFill=0;" parent="1" target="UVPNnTYAwM3Xo7iVTWcv-15" edge="1">
                    <mxGeometry relative="1" as="geometry">
                        <Array as="points">
                            <mxPoint x="207" y="1333"/>
                        </Array>
                        <mxPoint x="1030" y="1333" as="sourcePoint"/>
                    </mxGeometry>
                </mxCell>
                <mxCell id="UmJtmivmZBQiV6s8Z7DU-2" value="&lt;span style=&quot;font-size: 15px;&quot;&gt;&lt;font color=&quot;#ffffff&quot;&gt;◀︎appartiene&lt;/font&gt;&lt;/span&gt;" style="resizable=0;html=1;align=right;verticalAlign=bottom;labelBackgroundColor=none;fontColor=#0000FF;strokeColor=#0000FF;" parent="1" connectable="0" vertex="1">
                    <mxGeometry x="430.0012899312509" y="1330.0010809529485" as="geometry"/>
                </mxCell>
                <mxCell id="UmJtmivmZBQiV6s8Z7DU-4" value="0..n" style="resizable=0;html=1;align=right;verticalAlign=top;labelBackgroundColor=none;" parent="1" connectable="0" vertex="1">
                    <mxGeometry x="1023" y="1310" as="geometry"/>
                </mxCell>
                <mxCell id="UmJtmivmZBQiV6s8Z7DU-5" value="&lt;font color=&quot;#000000&quot;&gt;1&lt;/font&gt;" style="resizable=0;html=1;align=right;verticalAlign=top;labelBackgroundColor=none;fontColor=#0000FF;strokeColor=#0000FF;" parent="1" connectable="0" vertex="1">
                    <mxGeometry x="209.9981481481483" y="876" as="geometry">
                        <mxPoint x="11" y="-1" as="offset"/>
                    </mxGeometry>
                </mxCell>
                <mxCell id="2" style="edgeStyle=none;html=1;exitX=1.021;exitY=0.933;exitDx=0;exitDy=0;exitPerimeter=0;endArrow=none;endFill=0;" edge="1" parent="1" source="OorJLYem-8eahj1t15pe-91">
                    <mxGeometry relative="1" as="geometry">
                        <mxPoint x="1560" y="1440" as="targetPoint"/>
                        <Array as="points">
                            <mxPoint x="1560" y="1333"/>
                        </Array>
                    </mxGeometry>
                </mxCell>
                <mxCell id="4" value="appartengono" style="text;html=1;strokeColor=none;fillColor=none;align=center;verticalAlign=middle;whiteSpace=wrap;rounded=0;fontSize=15;" vertex="1" parent="1">
                    <mxGeometry x="1463" y="1310" width="80" height="30" as="geometry"/>
                </mxCell>
                <mxCell id="5" value="Raggruppamento" style="swimlane;fontStyle=0;childLayout=stackLayout;horizontal=1;startSize=26;horizontalStack=0;resizeParent=1;resizeParentMax=0;resizeLast=0;collapsible=1;marginBottom=0;labelBackgroundColor=none;" vertex="1" parent="1">
                    <mxGeometry x="1490" y="1440" width="140" height="80" as="geometry"/>
                </mxCell>
            </root>
        </mxGraphModel>
    </diagram>
</mxfile>